<svg width="158" height="27" viewBox="0 0 158 27" fill="none" xmlns="http://www.w3.org/2000/svg">
<g filter="url(#filter0_d_32_3)">
<mask id="path-1-outside-1_32_3" maskUnits="userSpaceOnUse" x="3" y="-1" width="153" height="21" fill="black">
<rect fill="white" x="3" y="-1" width="153" height="21"/>
<path d="M11.416 18.12C9.048 18.12 7.304 17.704 6.184 16.872C5.08 16.024 4.528 14.728 4.528 12.984C4.528 12.568 4.576 12.144 4.672 11.712H8.512C8.48 11.92 8.456 12.12 8.44 12.312C8.424 12.504 8.416 12.664 8.416 12.792C8.416 13.672 8.744 14.264 9.4 14.568C10.056 14.856 10.944 15 12.064 15H13.576C14.936 15 15.896 14.784 16.456 14.352C17.032 13.904 17.32 13.072 17.32 11.856V0.839999H21.16V11.856C21.16 13.264 20.944 14.432 20.512 15.36C20.08 16.288 19.36 16.984 18.352 17.448C17.344 17.896 15.968 18.12 14.224 18.12H11.416ZM24.5238 18V0.839999H43.3398V3.96H28.3638V7.752H41.9478V10.872H28.3638V14.88H43.3398V18H24.5238ZM47.4091 18L45.4891 0.839999H49.3291L50.7451 13.368L55.5211 9.696V0.839999H59.3611V9.72L64.0891 13.368L65.5291 0.839999H69.3691L67.4491 18H64.2331L57.4411 12.504L50.6251 18H47.4091ZM72.2425 18V0.839999H91.0585V3.96H76.0825V7.752H89.6665V10.872H76.0825V14.88H91.0585V18H72.2425ZM93.6878 18V0.839999H97.5278V14.88H110.08V18H93.6878ZM112.485 18V0.839999H131.301V3.96H116.325V7.752H129.909V10.872H116.325V14.88H131.301V18H112.485ZM133.93 18V0.839999H148.306C150.082 0.839999 151.458 1.288 152.434 2.184C153.426 3.08 153.922 4.44 153.922 6.264C153.922 7.816 153.562 9.032 152.842 9.912C152.122 10.792 151.098 11.344 149.77 11.568L153.73 18H149.362L145.69 11.688H137.77V18H133.93ZM147.85 3.96H137.77V8.544L147.85 8.568C148.554 8.568 149.09 8.392 149.458 8.04C149.842 7.688 150.034 7.096 150.034 6.264C150.034 5.416 149.842 4.824 149.458 4.488C149.09 4.136 148.554 3.96 147.85 3.96Z"/>
</mask>
<path d="M11.416 18.12C9.048 18.12 7.304 17.704 6.184 16.872C5.08 16.024 4.528 14.728 4.528 12.984C4.528 12.568 4.576 12.144 4.672 11.712H8.512C8.48 11.92 8.456 12.12 8.44 12.312C8.424 12.504 8.416 12.664 8.416 12.792C8.416 13.672 8.744 14.264 9.4 14.568C10.056 14.856 10.944 15 12.064 15H13.576C14.936 15 15.896 14.784 16.456 14.352C17.032 13.904 17.32 13.072 17.32 11.856V0.839999H21.16V11.856C21.16 13.264 20.944 14.432 20.512 15.36C20.08 16.288 19.36 16.984 18.352 17.448C17.344 17.896 15.968 18.12 14.224 18.12H11.416ZM24.5238 18V0.839999H43.3398V3.96H28.3638V7.752H41.9478V10.872H28.3638V14.88H43.3398V18H24.5238ZM47.4091 18L45.4891 0.839999H49.3291L50.7451 13.368L55.5211 9.696V0.839999H59.3611V9.72L64.0891 13.368L65.5291 0.839999H69.3691L67.4491 18H64.2331L57.4411 12.504L50.6251 18H47.4091ZM72.2425 18V0.839999H91.0585V3.96H76.0825V7.752H89.6665V10.872H76.0825V14.88H91.0585V18H72.2425ZM93.6878 18V0.839999H97.5278V14.88H110.08V18H93.6878ZM112.485 18V0.839999H131.301V3.96H116.325V7.752H129.909V10.872H116.325V14.88H131.301V18H112.485ZM133.93 18V0.839999H148.306C150.082 0.839999 151.458 1.288 152.434 2.184C153.426 3.08 153.922 4.44 153.922 6.264C153.922 7.816 153.562 9.032 152.842 9.912C152.122 10.792 151.098 11.344 149.77 11.568L153.73 18H149.362L145.69 11.688H137.77V18H133.93ZM147.85 3.96H137.77V8.544L147.85 8.568C148.554 8.568 149.09 8.392 149.458 8.04C149.842 7.688 150.034 7.096 150.034 6.264C150.034 5.416 149.842 4.824 149.458 4.488C149.09 4.136 148.554 3.96 147.85 3.96Z" fill="url(#paint0_linear_32_3)" fill-opacity="0.5" shape-rendering="crispEdges"/>
<path d="M6.184 16.872L5.57484 17.6651L5.58122 17.6699L5.58768 17.6747L6.184 16.872ZM4.672 11.712V10.712H3.86983L3.69581 11.4951L4.672 11.712ZM8.512 11.712L9.50037 11.8641L9.67761 10.712H8.512V11.712ZM8.44 12.312L7.44345 12.229L7.44345 12.229L8.44 12.312ZM9.4 14.568L8.97954 15.4753L8.98873 15.4796L8.99801 15.4836L9.4 14.568ZM16.456 14.352L17.0668 15.1438L17.0699 15.1414L16.456 14.352ZM17.32 0.839999V-0.160001H16.32V0.839999H17.32ZM21.16 0.839999H22.16V-0.160001H21.16V0.839999ZM18.352 17.448L18.7582 18.3619L18.7701 18.3564L18.352 17.448ZM11.416 17.12C9.12772 17.12 7.64424 16.711 6.78032 16.0693L5.58768 17.6747C6.96376 18.697 8.96829 19.12 11.416 19.12V17.12ZM6.79316 16.0789C5.99701 15.4674 5.528 14.504 5.528 12.984H3.528C3.528 14.952 4.16299 16.5806 5.57484 17.6651L6.79316 16.0789ZM5.528 12.984C5.528 12.6454 5.56701 12.2942 5.64819 11.9289L3.69581 11.4951C3.58499 11.9938 3.528 12.4906 3.528 12.984H5.528ZM4.672 12.712H8.512V10.712H4.672V12.712ZM7.52363 11.5599C7.48842 11.7888 7.46154 12.0119 7.44345 12.229L9.43655 12.395C9.45046 12.2281 9.47158 12.0512 9.50037 11.8641L7.52363 11.5599ZM7.44345 12.229C7.42618 12.4363 7.416 12.6262 7.416 12.792H9.416C9.416 12.7018 9.42182 12.5717 9.43655 12.395L7.44345 12.229ZM7.416 12.792C7.416 13.3521 7.52007 13.8984 7.78729 14.3806C8.06126 14.8751 8.47307 15.2406 8.97954 15.4753L9.82046 13.6607C9.67093 13.5914 9.59074 13.5089 9.53671 13.4114C9.47593 13.3016 9.416 13.1119 9.416 12.792H7.416ZM8.99801 15.4836C9.83188 15.8497 10.8753 16 12.064 16V14C11.0127 14 10.2801 13.8623 9.80199 13.6524L8.99801 15.4836ZM12.064 16H13.576V14H12.064V16ZM13.576 16C14.9825 16 16.2312 15.7884 17.0668 15.1438L15.8452 13.5602C15.5608 13.7796 14.8895 14 13.576 14V16ZM17.0699 15.1414C18.014 14.4071 18.32 13.1781 18.32 11.856H16.32C16.32 12.9659 16.05 13.4009 15.8421 13.5626L17.0699 15.1414ZM18.32 11.856V0.839999H16.32V11.856H18.32ZM17.32 1.84H21.16V-0.160001H17.32V1.84ZM20.16 0.839999V11.856H22.16V0.839999H20.16ZM20.16 11.856C20.16 13.1697 19.9573 14.182 19.6054 14.938L21.4186 15.782C21.9307 14.682 22.16 13.3583 22.16 11.856H20.16ZM19.6054 14.938C19.2821 15.6324 18.746 16.1658 17.9339 16.5396L18.7701 18.3564C19.974 17.8022 20.8779 16.9436 21.4186 15.782L19.6054 14.938ZM17.9459 16.5342C17.1185 16.9019 15.9004 17.12 14.224 17.12V19.12C16.0356 19.12 17.5695 18.8901 18.7581 18.3618L17.9459 16.5342ZM14.224 17.12H11.416V19.12H14.224V17.12ZM24.5238 18H23.5238V19H24.5238V18ZM24.5238 0.839999V-0.160001H23.5238V0.839999H24.5238ZM43.3398 0.839999H44.3398V-0.160001H43.3398V0.839999ZM43.3398 3.96V4.96H44.3398V3.96H43.3398ZM28.3638 3.96V2.96H27.3638V3.96H28.3638ZM28.3638 7.752H27.3638V8.752H28.3638V7.752ZM41.9478 7.752H42.9478V6.752H41.9478V7.752ZM41.9478 10.872V11.872H42.9478V10.872H41.9478ZM28.3638 10.872V9.872H27.3638V10.872H28.3638ZM28.3638 14.88H27.3638V15.88H28.3638V14.88ZM43.3398 14.88H44.3398V13.88H43.3398V14.88ZM43.3398 18V19H44.3398V18H43.3398ZM25.5238 18V0.839999H23.5238V18H25.5238ZM24.5238 1.84H43.3398V-0.160001H24.5238V1.84ZM42.3398 0.839999V3.96H44.3398V0.839999H42.3398ZM43.3398 2.96H28.3638V4.96H43.3398V2.96ZM27.3638 3.96V7.752H29.3638V3.96H27.3638ZM28.3638 8.752H41.9478V6.752H28.3638V8.752ZM40.9478 7.752V10.872H42.9478V7.752H40.9478ZM41.9478 9.872H28.3638V11.872H41.9478V9.872ZM27.3638 10.872V14.88H29.3638V10.872H27.3638ZM28.3638 15.88H43.3398V13.88H28.3638V15.88ZM42.3398 14.88V18H44.3398V14.88H42.3398ZM43.3398 17H24.5238V19H43.3398V17ZM47.4091 18L46.4153 18.1112L46.5147 19H47.4091V18ZM45.4891 0.839999V-0.160001H44.3709L44.4953 0.951193L45.4891 0.839999ZM49.3291 0.839999L50.3227 0.727687L50.2224 -0.160001H49.3291V0.839999ZM50.7451 13.368L49.7514 13.4803L49.9503 15.2404L51.3546 14.1608L50.7451 13.368ZM55.5211 9.696L56.1306 10.4888L56.5211 10.1886V9.696H55.5211ZM55.5211 0.839999V-0.160001H54.5211V0.839999H55.5211ZM59.3611 0.839999H60.3611V-0.160001H59.3611V0.839999ZM59.3611 9.72H58.3611V10.2115L58.7502 10.5117L59.3611 9.72ZM64.0891 13.368L63.4782 14.1597L64.8803 15.2416L65.0825 13.4822L64.0891 13.368ZM65.5291 0.839999V-0.160001H64.6374L64.5356 0.725809L65.5291 0.839999ZM69.3691 0.839999L70.3629 0.951194L70.4872 -0.160001H69.3691V0.839999ZM67.4491 18V19H68.3434L68.4429 18.1112L67.4491 18ZM64.2331 18L63.604 18.7774L63.8791 19H64.2331V18ZM57.4411 12.504L58.0701 11.7266L57.4422 11.2185L56.8134 11.7255L57.4411 12.504ZM50.6251 18V19H50.978L51.2528 18.7785L50.6251 18ZM48.4029 17.8888L46.4829 0.728805L44.4953 0.951193L46.4153 18.1112L48.4029 17.8888ZM45.4891 1.84H49.3291V-0.160001H45.4891V1.84ZM48.3354 0.952311L49.7514 13.4803L51.7387 13.2557L50.3227 0.727687L48.3354 0.952311ZM51.3546 14.1608L56.1306 10.4888L54.9115 8.90323L50.1355 12.5752L51.3546 14.1608ZM56.5211 9.696V0.839999H54.5211V9.696H56.5211ZM55.5211 1.84H59.3611V-0.160001H55.5211V1.84ZM58.3611 0.839999V9.72H60.3611V0.839999H58.3611ZM58.7502 10.5117L63.4782 14.1597L64.6999 12.5763L59.9719 8.92827L58.7502 10.5117ZM65.0825 13.4822L66.5225 0.95419L64.5356 0.725809L63.0956 13.2538L65.0825 13.4822ZM65.5291 1.84H69.3691V-0.160001H65.5291V1.84ZM68.3753 0.728805L66.4553 17.8888L68.4429 18.1112L70.3629 0.951194L68.3753 0.728805ZM67.4491 17H64.2331V19H67.4491V17ZM64.8621 17.2226L58.0701 11.7266L56.812 13.2814L63.604 18.7774L64.8621 17.2226ZM56.8134 11.7255L49.9974 17.2215L51.2528 18.7785L58.0688 13.2825L56.8134 11.7255ZM50.6251 17H47.4091V19H50.6251V17ZM72.2425 18H71.2425V19H72.2425V18ZM72.2425 0.839999V-0.160001H71.2425V0.839999H72.2425ZM91.0585 0.839999H92.0585V-0.160001H91.0585V0.839999ZM91.0585 3.96V4.96H92.0585V3.96H91.0585ZM76.0825 3.96V2.96H75.0825V3.96H76.0825ZM76.0825 7.752H75.0825V8.752H76.0825V7.752ZM89.6665 7.752H90.6665V6.752H89.6665V7.752ZM89.6665 10.872V11.872H90.6665V10.872H89.6665ZM76.0825 10.872V9.872H75.0825V10.872H76.0825ZM76.0825 14.88H75.0825V15.88H76.0825V14.88ZM91.0585 14.88H92.0585V13.88H91.0585V14.88ZM91.0585 18V19H92.0585V18H91.0585ZM73.2425 18V0.839999H71.2425V18H73.2425ZM72.2425 1.84H91.0585V-0.160001H72.2425V1.84ZM90.0585 0.839999V3.96H92.0585V0.839999H90.0585ZM91.0585 2.96H76.0825V4.96H91.0585V2.96ZM75.0825 3.96V7.752H77.0825V3.96H75.0825ZM76.0825 8.752H89.6665V6.752H76.0825V8.752ZM88.6665 7.752V10.872H90.6665V7.752H88.6665ZM89.6665 9.872H76.0825V11.872H89.6665V9.872ZM75.0825 10.872V14.88H77.0825V10.872H75.0825ZM76.0825 15.88H91.0585V13.88H76.0825V15.88ZM90.0585 14.88V18H92.0585V14.88H90.0585ZM91.0585 17H72.2425V19H91.0585V17ZM93.6878 18H92.6878V19H93.6878V18ZM93.6878 0.839999V-0.160001H92.6878V0.839999H93.6878ZM97.5278 0.839999H98.5278V-0.160001H97.5278V0.839999ZM97.5278 14.88H96.5278V15.88H97.5278V14.88ZM110.08 14.88H111.08V13.88H110.08V14.88ZM110.08 18V19H111.08V18H110.08ZM94.6878 18V0.839999H92.6878V18H94.6878ZM93.6878 1.84H97.5278V-0.160001H93.6878V1.84ZM96.5278 0.839999V14.88H98.5278V0.839999H96.5278ZM97.5278 15.88H110.08V13.88H97.5278V15.88ZM109.08 14.88V18H111.08V14.88H109.08ZM110.08 17H93.6878V19H110.08V17ZM112.485 18H111.485V19H112.485V18ZM112.485 0.839999V-0.160001H111.485V0.839999H112.485ZM131.301 0.839999H132.301V-0.160001H131.301V0.839999ZM131.301 3.96V4.96H132.301V3.96H131.301ZM116.325 3.96V2.96H115.325V3.96H116.325ZM116.325 7.752H115.325V8.752H116.325V7.752ZM129.909 7.752H130.909V6.752H129.909V7.752ZM129.909 10.872V11.872H130.909V10.872H129.909ZM116.325 10.872V9.872H115.325V10.872H116.325ZM116.325 14.88H115.325V15.88H116.325V14.88ZM131.301 14.88H132.301V13.88H131.301V14.88ZM131.301 18V19H132.301V18H131.301ZM113.485 18V0.839999H111.485V18H113.485ZM112.485 1.84H131.301V-0.160001H112.485V1.84ZM130.301 0.839999V3.96H132.301V0.839999H130.301ZM131.301 2.96H116.325V4.96H131.301V2.96ZM115.325 3.96V7.752H117.325V3.96H115.325ZM116.325 8.752H129.909V6.752H116.325V8.752ZM128.909 7.752V10.872H130.909V7.752H128.909ZM129.909 9.872H116.325V11.872H129.909V9.872ZM115.325 10.872V14.88H117.325V10.872H115.325ZM116.325 15.88H131.301V13.88H116.325V15.88ZM130.301 14.88V18H132.301V14.88H130.301ZM131.301 17H112.485V19H131.301V17ZM133.93 18H132.93V19H133.93V18ZM133.93 0.839999V-0.160001H132.93V0.839999H133.93ZM152.434 2.184L151.758 2.92068L151.764 2.9261L152.434 2.184ZM149.77 11.568L149.604 10.5819L148.141 10.8287L148.918 12.0923L149.77 11.568ZM153.73 18V19H155.52L154.582 17.4757L153.73 18ZM149.362 18L148.498 18.5028L148.787 19H149.362V18ZM145.69 11.688L146.554 11.1852L146.265 10.688H145.69V11.688ZM137.77 11.688V10.688H136.77V11.688H137.77ZM137.77 18V19H138.77V18H137.77ZM137.77 3.96V2.96H136.77V3.96H137.77ZM137.77 8.544H136.77V9.54162L137.768 9.544L137.77 8.544ZM147.85 8.568L147.848 9.568H147.85V8.568ZM149.458 8.04L148.782 7.30284L148.774 7.31002L148.767 7.31736L149.458 8.04ZM149.458 4.488L148.767 5.21064L148.783 5.22597L148.799 5.24058L149.458 4.488ZM134.93 18V0.839999H132.93V18H134.93ZM133.93 1.84H148.306V-0.160001H133.93V1.84ZM148.306 1.84C149.918 1.84 151.022 2.24477 151.758 2.92065L153.11 1.44735C151.894 0.331226 150.246 -0.160001 148.306 -0.160001V1.84ZM151.764 2.9261C152.478 3.57082 152.922 4.61549 152.922 6.264H154.922C154.922 4.26451 154.374 2.58918 153.104 1.4419L151.764 2.9261ZM152.922 6.264C152.922 7.66903 152.596 8.63305 152.068 9.27876L153.616 10.5452C154.528 9.43095 154.922 7.96296 154.922 6.264H152.922ZM152.068 9.27876C151.529 9.93809 150.739 10.3903 149.604 10.5819L149.936 12.5541C151.457 12.2977 152.715 11.6459 153.616 10.5452L152.068 9.27876ZM148.918 12.0923L152.878 18.5243L154.582 17.4757L150.622 11.0437L148.918 12.0923ZM153.73 17H149.362V19H153.73V17ZM150.226 17.4972L146.554 11.1852L144.826 12.1908L148.498 18.5028L150.226 17.4972ZM145.69 10.688H137.77V12.688H145.69V10.688ZM136.77 11.688V18H138.77V11.688H136.77ZM137.77 17H133.93V19H137.77V17ZM147.85 2.96H137.77V4.96H147.85V2.96ZM136.77 3.96V8.544H138.77V3.96H136.77ZM137.768 9.544L147.848 9.568L147.852 7.568L137.772 7.544L137.768 9.544ZM147.85 9.568C148.712 9.568 149.534 9.35136 150.149 8.76264L148.767 7.31736C148.646 7.43264 148.396 7.568 147.85 7.568V9.568ZM150.134 8.77715C150.82 8.14805 151.034 7.21291 151.034 6.264H149.034C149.034 6.97909 148.864 7.22795 148.782 7.30284L150.134 8.77715ZM151.034 6.264C151.034 5.31216 150.826 4.35602 150.117 3.73542L148.799 5.24058C148.858 5.29198 149.034 5.51984 149.034 6.264H151.034ZM150.149 3.76536C149.534 3.17664 148.712 2.96 147.85 2.96V4.96C148.396 4.96 148.646 5.09536 148.767 5.21064L150.149 3.76536Z" fill="black" fill-opacity="0.2" mask="url(#path-1-outside-1_32_3)"/>
</g>
<defs>
<filter id="filter0_d_32_3" x="0.528" y="0.839996" width="157.394" height="25.28" filterUnits="userSpaceOnUse" color-interpolation-filters="sRGB">
<feFlood flood-opacity="0" result="BackgroundImageFix"/>
<feColorMatrix in="SourceAlpha" type="matrix" values="0 0 0 0 0 0 0 0 0 0 0 0 0 0 0 0 0 0 127 0" result="hardAlpha"/>
<feOffset dy="4"/>
<feGaussianBlur stdDeviation="2"/>
<feComposite in2="hardAlpha" operator="out"/>
<feColorMatrix type="matrix" values="0 0 0 0 0 0 0 0 0 0 0 0 0 0 0 0 0 0 0.25 0"/>
<feBlend mode="normal" in2="BackgroundImageFix" result="effect1_dropShadow_32_3"/>
<feBlend mode="normal" in="SourceGraphic" in2="effect1_dropShadow_32_3" result="shape"/>
</filter>
<linearGradient id="paint0_linear_32_3" x1="4" y1="10.5" x2="156" y2="10.5" gradientUnits="userSpaceOnUse">
<stop offset="0.29" stop-color="#537668"/>
<stop offset="1" stop-color="#ACDC9B"/>
</linearGradient>
</defs>
</svg>
